<?xml version="1.0" encoding="UTF-8"?>
<svg id="Capa_2" xmlns="http://www.w3.org/2000/svg" version="1.1" viewBox="0 0 270.97 314">
  <!-- Generator: Adobe Illustrator 30.0.0, SVG Export Plug-In . SVG Version: 2.1.1 Build 123)  -->
  <defs>
    <style>
      .st0 {
        fill: #a7a7a7;
      }

      .st1 {
        fill: #64c8b0;
      }

      .st2 {
        fill-rule: evenodd;
      }
    </style>
  </defs>
  <g id="Capa_1-2">
    <path class="st2" d="M630.97,236.82c0,86.7-89.26,82.14-153.91,82.14s-117.06-70.28-117.06-156.98S412.41,5,477.06,5s153.91,145.13,153.91,231.82Z"/>
    <path class="st0" d="M461.84,246.47V108.85l-24.42,13.07-6.66-14.8,36.99-20.96h26.39v160.31h-32.31,0Z"/>
  </g>
  <path class="st1" d="M241.89,18.89H27.11c-8.13,0-11.08,3.64-11.08,12.89v62.18c0,8.86,2.96,12.5,11.08,12.5h41.4c5.55,0,10.73-4.03,12.2-10.08,6.65-26.2,27.72-45.56,53.61-45.56h.38c25.89,0,46.96,19.34,53.61,45.56,1.48,6.05,6.65,10.08,12.2,10.08h41.4c8.13,0,11.08-3.64,11.08-12.5V31.78c0-9.28-2.96-12.89-11.08-12.89h-.02Z"/>
  <path class="st1" d="M241.89,213.32h-41.4c-5.55,0-10.73,4.03-12.2,10.08-6.65,26.2-27.72,45.56-53.61,45.56h-.38c-25.89,0-46.96-19.34-53.61-45.56-1.48-6.05-6.65-10.08-12.2-10.08H27.08c-8.13,0-11.08,3.64-11.08,12.5v62.18c0,9.28,2.96,12.89,11.08,12.89h214.79c8.13,0,11.08-3.64,11.08-12.89v-62.18c0-8.86-2.96-12.5-11.08-12.5h.02Z"/>
  <path class="st1" d="M122.2,219.83v-82.35l-22.14,11.42v-29.24l27.51-15.22h29.24v115.39h-34.6Z"/>
</svg>